<svg width="52" height="52" viewBox="0 0 52 52" fill="none" xmlns="http://www.w3.org/2000/svg">
<path d="M29.0116 37.6134L23.0532 31.655" stroke="#5A7A7E" stroke-width="2" stroke-miterlimit="10" stroke-linecap="round" stroke-linejoin="round"/>
<path d="M28.9466 31.72L22.9883 37.6783" stroke="#5A7A7E" stroke-width="2" stroke-miterlimit="10" stroke-linecap="round" stroke-linejoin="round"/>
<path d="M19.0885 4.33331L11.2451 12.1983" stroke="#5A7A7E" stroke-width="2" stroke-miterlimit="10" stroke-linecap="round" stroke-linejoin="round"/>
<path d="M32.9116 4.33331L40.755 12.1983" stroke="#5A7A7E" stroke-width="2" stroke-miterlimit="10" stroke-linecap="round" stroke-linejoin="round"/>
<path d="M4.3335 17.0083C4.3335 13 6.4785 12.675 9.1435 12.675H42.8568C45.5218 12.675 47.6668 13 47.6668 17.0083C47.6668 21.6667 45.5218 21.3417 42.8568 21.3417H9.1435C6.4785 21.3417 4.3335 21.6667 4.3335 17.0083Z" stroke="#5A7A7E" stroke-width="2"/>
<path d="M7.5835 21.6667L10.6385 40.3867C11.3318 44.59 13.0002 47.6667 19.1968 47.6667H32.2618C39.0002 47.6667 39.9968 44.72 40.7768 40.6467L44.4168 21.6667" stroke="#5A7A7E" stroke-width="2" stroke-linecap="round"/>
</svg>
