<svg width="18" height="19" viewBox="0 0 18 19" fill="none" xmlns="http://www.w3.org/2000/svg">
<path d="M5.99999 17H12C15.015 17 15.555 15.7925 15.7125 14.3225L16.275 8.3225C16.4775 6.4925 15.9525 5 12.75 5H5.24999C2.04749 5 1.52249 6.4925 1.72499 8.3225L2.28749 14.3225C2.44499 15.7925 2.98499 17 5.99999 17Z" stroke="#5A7A7E" stroke-width="1.5" stroke-miterlimit="10" stroke-linecap="round" stroke-linejoin="round"/>
<path d="M6 5V4.4C6 3.0725 6 2 8.4 2H9.6C12 2 12 3.0725 12 4.4V5" stroke="#5A7A7E" stroke-width="1.5" stroke-miterlimit="10" stroke-linecap="round" stroke-linejoin="round"/>
<path d="M10.5 10.25V11C10.5 11.0075 10.5 11.0075 10.5 11.015C10.5 11.8325 10.4925 12.5 9 12.5C7.515 12.5 7.5 11.84 7.5 11.0225V10.25C7.5 9.5 7.5 9.5 8.25 9.5H9.75C10.5 9.5 10.5 9.5 10.5 10.25Z" stroke="#5A7A7E" stroke-width="1.5" stroke-miterlimit="10" stroke-linecap="round" stroke-linejoin="round"/>
<path d="M16.2375 8.75C14.505 10.01 12.525 10.76 10.5 11.015" stroke="#5A7A7E" stroke-width="1.5" stroke-miterlimit="10" stroke-linecap="round" stroke-linejoin="round"/>
<path d="M1.965 8.95251C3.6525 10.1075 5.5575 10.805 7.5 11.0225" stroke="#5A7A7E" stroke-width="1.5" stroke-miterlimit="10" stroke-linecap="round" stroke-linejoin="round"/>
</svg>
