<svg width="52" height="53" viewBox="0 0 52 53" fill="none" xmlns="http://www.w3.org/2000/svg">
<path d="M17.3335 4.83337V11.3334" stroke="#5A7A7E" stroke-width="2" stroke-miterlimit="10" stroke-linecap="round" stroke-linejoin="round"/>
<path d="M34.6665 4.83337V11.3334" stroke="#5A7A7E" stroke-width="2" stroke-miterlimit="10" stroke-linecap="round" stroke-linejoin="round"/>
<path d="M7.5835 20.1951H44.4168" stroke="#5A7A7E" stroke-width="2" stroke-miterlimit="10" stroke-linecap="round" stroke-linejoin="round"/>
<path d="M39.0002 50.3334C43.7866 50.3334 47.6668 46.4532 47.6668 41.6667C47.6668 36.8803 43.7866 33.0001 39.0002 33.0001C34.2137 33.0001 30.3335 36.8803 30.3335 41.6667C30.3335 46.4532 34.2137 50.3334 39.0002 50.3334Z" stroke="#5A7A7E" stroke-width="2" stroke-miterlimit="10" stroke-linecap="round" stroke-linejoin="round"/>
<path d="M41.3185 44.0717L36.7251 39.5001" stroke="#5A7A7E" stroke-width="2" stroke-miterlimit="10" stroke-linecap="round" stroke-linejoin="round"/>
<path d="M41.275 39.5434L36.6816 44.1368" stroke="#5A7A7E" stroke-width="2" stroke-miterlimit="10" stroke-linecap="round" stroke-linejoin="round"/>
<path d="M45.5 18.9167V35.9467C43.9183 34.1483 41.6 33 39 33C34.2117 33 30.3333 36.8784 30.3333 41.6667C30.3333 43.2917 30.7883 44.83 31.59 46.13C32.045 46.91 32.63 47.6034 33.3017 48.1667H17.3333C9.75 48.1667 6.5 43.8334 6.5 37.3334V18.9167C6.5 12.4167 9.75 8.08337 17.3333 8.08337H34.6667C42.25 8.08337 45.5 12.4167 45.5 18.9167Z" stroke="#5A7A7E" stroke-width="2" stroke-miterlimit="10" stroke-linecap="round" stroke-linejoin="round"/>
<path d="M25.9904 30.1834H26.0098" stroke="#5A7A7E" stroke-width="4" stroke-linecap="round" stroke-linejoin="round"/>
<path d="M17.9708 30.1834H17.9903" stroke="#5A7A7E" stroke-width="4" stroke-linecap="round" stroke-linejoin="round"/>
<path d="M17.9708 36.6834H17.9903" stroke="#5A7A7E" stroke-width="4" stroke-linecap="round" stroke-linejoin="round"/>
</svg>
