<svg width="52" height="52" viewBox="0 0 52 52" fill="none" xmlns="http://www.w3.org/2000/svg">
<rect y="0.000183105" width="52" height="52" rx="16" fill="#F1FAE6"/>
<path d="M22 16.0002V19.0002" stroke="#34613A" stroke-width="2" stroke-miterlimit="10" stroke-linecap="round" stroke-linejoin="round"/>
<path d="M30 16.0002V19.0002" stroke="#34613A" stroke-width="2" stroke-miterlimit="10" stroke-linecap="round" stroke-linejoin="round"/>
<path d="M17.5 23.0902H34.5" stroke="#34613A" stroke-width="2" stroke-miterlimit="10" stroke-linecap="round" stroke-linejoin="round"/>
<path d="M36 33.0002C36 33.7502 35.79 34.4602 35.42 35.0602C34.73 36.2202 33.46 37.0002 32 37.0002C30.99 37.0002 30.07 36.6302 29.37 36.0002C29.06 35.7402 28.79 35.4202 28.58 35.0602C28.21 34.4602 28 33.7502 28 33.0002C28 30.7902 29.79 29.0002 32 29.0002C33.2 29.0002 34.27 29.5302 35 30.3602C35.62 31.0702 36 31.9902 36 33.0002Z" stroke="#34613A" stroke-width="1.5" stroke-miterlimit="10" stroke-linecap="round" stroke-linejoin="round"/>
<path d="M30.4399 33.0002L31.4299 33.9901L33.5599 32.0201" stroke="#34613A" stroke-width="1.5" stroke-linecap="round" stroke-linejoin="round"/>
<path d="M35 22.5002V30.3602C34.27 29.5302 33.2 29.0002 32 29.0002C29.79 29.0002 28 30.7902 28 33.0002C28 33.7502 28.21 34.4602 28.58 35.0602C28.79 35.4202 29.06 35.7402 29.37 36.0002H22C18.5 36.0002 17 34.0002 17 31.0002V22.5002C17 19.5002 18.5 17.5002 22 17.5002H30C33.5 17.5002 35 19.5002 35 22.5002Z" stroke="#34613A" stroke-width="1.5" stroke-miterlimit="10" stroke-linecap="round" stroke-linejoin="round"/>
<path d="M25.9955 27.7002H26.0045" stroke="#34613A" stroke-width="2" stroke-linecap="round" stroke-linejoin="round"/>
<path d="M22.2943 27.7002H22.3033" stroke="#34613A" stroke-width="2" stroke-linecap="round" stroke-linejoin="round"/>
<path d="M22.2943 30.7002H22.3033" stroke="#34613A" stroke-width="2" stroke-linecap="round" stroke-linejoin="round"/>
</svg>
