<svg width="24" height="24" viewBox="0 0 24 24" fill="none" xmlns="http://www.w3.org/2000/svg">
<g id="vuesax/linear/calendar-edit">
<g id="calendar-edit">
<path id="Vector" d="M8 2.00024V5.00024" stroke="#5A7A7E" stroke-width="1.5" stroke-miterlimit="10" stroke-linecap="round" stroke-linejoin="round"/>
<path id="Vector_2" d="M16 2.00024V5.00024" stroke="#5A7A7E" stroke-width="1.5" stroke-miterlimit="10" stroke-linecap="round" stroke-linejoin="round"/>
<path id="Vector_3" d="M3.5 9.09021H20.5" stroke="#5A7A7E" stroke-width="1.5" stroke-miterlimit="10" stroke-linecap="round" stroke-linejoin="round"/>
<g id="Group">
<path id="Vector_4" d="M19.21 15.7703L15.6701 19.3103C15.5301 19.4503 15.4 19.7103 15.37 19.9003L15.18 21.2503C15.11 21.7403 15.45 22.0803 15.94 22.0103L17.29 21.8203C17.48 21.7903 17.75 21.6603 17.88 21.5203L21.4201 17.9803C22.0301 17.3703 22.3201 16.6603 21.4201 15.7603C20.5301 14.8703 19.82 15.1603 19.21 15.7703Z" stroke="#5A7A7E" stroke-width="1.5" stroke-miterlimit="10" stroke-linecap="round" stroke-linejoin="round"/>
<path id="Vector_5" d="M18.7 16.2803C19 17.3603 19.84 18.2003 20.92 18.5003" stroke="#5A7A7E" stroke-width="1.5" stroke-miterlimit="10" stroke-linecap="round" stroke-linejoin="round"/>
</g>
<path id="Vector_6" d="M12 22.0002H8C4.5 22.0002 3 20.0002 3 17.0002V8.50024C3 5.50024 4.5 3.50024 8 3.50024H16C19.5 3.50024 21 5.50024 21 8.50024V12.0002" stroke="#5A7A7E" stroke-width="1.5" stroke-miterlimit="10" stroke-linecap="round" stroke-linejoin="round"/>
<path id="Vector_7" d="M11.9955 13.7003H12.0045" stroke="#5A7A7E" stroke-width="2" stroke-linecap="round" stroke-linejoin="round"/>
<path id="Vector_8" d="M8.29431 13.7003H8.30329" stroke="#5A7A7E" stroke-width="2" stroke-linecap="round" stroke-linejoin="round"/>
<path id="Vector_9" d="M8.29431 16.7003H8.30329" stroke="#5A7A7E" stroke-width="2" stroke-linecap="round" stroke-linejoin="round"/>
</g>
</g>
</svg>
