<svg width="56" height="56" viewBox="0 0 56 56" fill="none" xmlns="http://www.w3.org/2000/svg">
<rect width="56" height="56" rx="16" fill="#FF5070"/>
<path d="M37 21.98C33.67 21.65 30.32 21.48 26.98 21.48C25 21.48 23.02 21.58 21.04 21.78L19 21.98" stroke="white" stroke-width="1.5" stroke-linecap="round" stroke-linejoin="round"/>
<path d="M24.5 20.97L24.72 19.66C24.88 18.71 25 18 26.69 18H29.31C31 18 31.13 18.75 31.28 19.67L31.5 20.97" stroke="white" stroke-width="1.5" stroke-linecap="round" stroke-linejoin="round"/>
<path d="M34.8499 25.1399L34.1999 35.2099C34.0899 36.7799 33.9999 37.9999 31.2099 37.9999H24.7899C21.9999 37.9999 21.9099 36.7799 21.7999 35.2099L21.1499 25.1399" stroke="white" stroke-width="1.5" stroke-linecap="round" stroke-linejoin="round"/>
<path d="M26.3301 32.5H29.6601" stroke="white" stroke-width="1.5" stroke-linecap="round" stroke-linejoin="round"/>
<path d="M25.5 28.5H30.5" stroke="white" stroke-width="1.5" stroke-linecap="round" stroke-linejoin="round"/>
</svg>
