<svg width="52" height="52" viewBox="0 0 52 52" fill="none" xmlns="http://www.w3.org/2000/svg">
<rect y="0.00012207" width="52" height="52" rx="16" fill="#F1FAE6"/>
<path d="M32.14 35.6201C31.26 35.8801 30.22 36.0001 29 36.0001H23C21.78 36.0001 20.74 35.8801 19.86 35.6201C20.08 33.0201 22.75 30.9701 26 30.9701C29.25 30.9701 31.92 33.0201 32.14 35.6201Z" stroke="#34613A" stroke-width="1.5" stroke-linecap="round" stroke-linejoin="round"/>
<path d="M29 16.0001H23C18 16.0001 16 18.0001 16 23.0001V29.0001C16 32.7801 17.14 34.8501 19.86 35.6201C20.08 33.0201 22.75 30.9701 26 30.9701C29.25 30.9701 31.92 33.0201 32.14 35.6201C34.86 34.8501 36 32.7801 36 29.0001V23.0001C36 18.0001 34 16.0001 29 16.0001ZM26 28.1701C24.02 28.1701 22.42 26.5601 22.42 24.5801C22.42 22.6001 24.02 21.0001 26 21.0001C27.98 21.0001 29.58 22.6001 29.58 24.5801C29.58 26.5601 27.98 28.1701 26 28.1701Z" stroke="#34613A" stroke-width="1.5" stroke-linecap="round" stroke-linejoin="round"/>
<path d="M29.58 24.5801C29.58 26.5601 27.98 28.1701 26 28.1701C24.02 28.1701 22.42 26.5601 22.42 24.5801C22.42 22.6001 24.02 21.0001 26 21.0001C27.98 21.0001 29.58 22.6001 29.58 24.5801Z" stroke="#34613A" stroke-width="1.5" stroke-linecap="round" stroke-linejoin="round"/>
</svg>
