<svg width="52" height="52" viewBox="0 0 52 52" fill="none" xmlns="http://www.w3.org/2000/svg">
<rect y="0.000183105" width="52" height="52" rx="16" fill="#F1FAE6"/>
<path d="M35.97 32.3302C35.97 32.6902 35.89 33.0602 35.72 33.4202C35.55 33.7802 35.33 34.1202 35.04 34.4402C34.55 34.9802 34.01 35.3702 33.4 35.6202C32.8 35.8702 32.15 36.0002 31.45 36.0002C30.43 36.0002 29.34 35.7602 28.19 35.2702C27.04 34.7802 25.89 34.1202 24.75 33.2902C23.6 32.4502 22.51 31.5202 21.47 30.4902C20.44 29.4502 19.51 28.3602 18.68 27.2202C17.86 26.0802 17.2 24.9402 16.72 23.8102C16.24 22.6702 16 21.5802 16 20.5402C16 19.8602 16.12 19.2102 16.36 18.6102C16.6 18.0002 16.98 17.4402 17.51 16.9402C18.15 16.3102 18.85 16.0002 19.59 16.0002C19.87 16.0002 20.15 16.0602 20.4 16.1802C20.66 16.3002 20.89 16.4802 21.07 16.7402L23.39 20.0102C23.57 20.2602 23.7 20.4902 23.79 20.7102C23.88 20.9202 23.93 21.1302 23.93 21.3202C23.93 21.5602 23.86 21.8002 23.72 22.0302C23.59 22.2602 23.4 22.5002 23.16 22.7402L22.4 23.5302C22.29 23.6402 22.24 23.7702 22.24 23.9302C22.24 24.0102 22.25 24.0802 22.27 24.1602C22.3 24.2402 22.33 24.3002 22.35 24.3602C22.53 24.6902 22.84 25.1202 23.28 25.6402C23.73 26.1602 24.21 26.6902 24.73 27.2202C25.27 27.7502 25.79 28.2402 26.32 28.6902C26.84 29.1302 27.27 29.4302 27.61 29.6102C27.66 29.6302 27.72 29.6602 27.79 29.6902C27.87 29.7202 27.95 29.7302 28.04 29.7302C28.21 29.7302 28.34 29.6702 28.45 29.5602L29.21 28.8102C29.46 28.5602 29.7 28.3702 29.93 28.2502C30.16 28.1102 30.39 28.0402 30.64 28.0402C30.83 28.0402 31.03 28.0802 31.25 28.1702C31.47 28.2602 31.7 28.3902 31.95 28.5602L35.26 30.9102C35.52 31.0902 35.7 31.3002 35.81 31.5502C35.91 31.8002 35.97 32.0502 35.97 32.3302Z" stroke="#34613A" stroke-width="1.5" stroke-miterlimit="10"/>
</svg>
