<svg width="52" height="52" viewBox="0 0 52 52" fill="none" xmlns="http://www.w3.org/2000/svg">
<rect y="6.10352e-05" width="52" height="52" rx="16" fill="#F1FAE6"/>
<path d="M21.5 18.0001H30.5C31.12 18.0001 31.67 18.0201 32.16 18.0901C34.79 18.3801 35.5 19.6201 35.5 23.0001V29.0001C35.5 32.3801 34.79 33.6201 32.16 33.9101C31.67 33.9801 31.12 34.0001 30.5 34.0001H21.5C20.88 34.0001 20.33 33.9801 19.84 33.9101C17.21 33.6201 16.5 32.3801 16.5 29.0001V23.0001C16.5 19.6201 17.21 18.3801 19.84 18.0901C20.33 18.0201 20.88 18.0001 21.5 18.0001Z" stroke="#34613A" stroke-width="1.5" stroke-linecap="round" stroke-linejoin="round"/>
<path d="M27.5 24.0001H31" stroke="#34613A" stroke-width="1.5" stroke-linecap="round" stroke-linejoin="round"/>
<path d="M21 29.5001H21.02H31" stroke="#34613A" stroke-width="1.5" stroke-linecap="round" stroke-linejoin="round"/>
<path d="M24.0946 24.0001H24.1036" stroke="#34613A" stroke-width="2" stroke-linecap="round" stroke-linejoin="round"/>
<path d="M21.0946 24.0001H21.1036" stroke="#34613A" stroke-width="2" stroke-linecap="round" stroke-linejoin="round"/>
</svg>
