<svg width="52" height="52" viewBox="0 0 52 52" fill="none" xmlns="http://www.w3.org/2000/svg">
<rect width="52" height="52" rx="16" fill="#F1FAE6"/>
<path d="M22.6719 28.3298C22.6719 29.6198 23.6619 30.6598 24.8919 30.6598H27.4019C28.4719 30.6598 29.3419 29.7498 29.3419 28.6298C29.3419 27.4098 28.8119 26.9798 28.0219 26.6998L23.9919 25.2998C23.2019 25.0198 22.6719 24.5898 22.6719 23.3698C22.6719 22.2498 23.5419 21.3398 24.6119 21.3398H27.1219C28.3519 21.3398 29.3419 22.3798 29.3419 23.6698" stroke="#34613A" stroke-width="2" stroke-linecap="round" stroke-linejoin="round"/>
<path d="M26 20V32" stroke="#34613A" stroke-width="2" stroke-linecap="round" stroke-linejoin="round"/>
<path d="M29 36H23C18 36 16 34 16 29V23C16 18 18 16 23 16H29C34 16 36 18 36 23V29C36 34 34 36 29 36Z" stroke="#34613A" stroke-width="2" stroke-linecap="round" stroke-linejoin="round"/>
</svg>
