<svg width="52" height="52" viewBox="0 0 52 52" fill="none" xmlns="http://www.w3.org/2000/svg">
<rect y="0.00012207" width="52" height="52" rx="16" fill="#F1FAE6"/>
<path d="M21.5 21.6701V20.7001C21.5 18.4501 23.31 16.2401 25.56 16.0301C28.24 15.7701 30.5 17.8801 30.5 20.5101V21.8901" stroke="#34613A" stroke-width="1.5" stroke-miterlimit="10" stroke-linecap="round" stroke-linejoin="round"/>
<path d="M23.0001 36.0001H29.0001C33.0201 36.0001 33.7401 34.3901 33.9501 32.4301L34.7001 26.4301C34.9701 23.9901 34.2701 22.0001 30.0001 22.0001H22.0001C17.7301 22.0001 17.0301 23.9901 17.3001 26.4301L18.0501 32.4301C18.2601 34.3901 18.9801 36.0001 23.0001 36.0001Z" stroke="#34613A" stroke-width="1.5" stroke-miterlimit="10" stroke-linecap="round" stroke-linejoin="round"/>
<path d="M29.4955 26.0001H29.5045" stroke="#34613A" stroke-width="1.5" stroke-linecap="round" stroke-linejoin="round"/>
<path d="M22.4945 26.0001H22.5035" stroke="#34613A" stroke-width="1.5" stroke-linecap="round" stroke-linejoin="round"/>
</svg>
