<svg width="19" height="18" viewBox="0 0 19 18" fill="none" xmlns="http://www.w3.org/2000/svg">
<path d="M5.95837 3H12.7084C13.1734 3 13.5859 3.015 13.9534 3.0675C15.9259 3.285 16.4584 4.215 16.4584 6.75V11.25C16.4584 13.785 15.9259 14.715 13.9534 14.9325C13.5859 14.985 13.1734 15 12.7084 15H5.95837C5.49337 15 5.08087 14.985 4.71337 14.9325C2.74087 14.715 2.20837 13.785 2.20837 11.25V6.75C2.20837 4.215 2.74087 3.285 4.71337 3.0675C5.08087 3.015 5.49337 3 5.95837 3Z" stroke="#5A7A7E" stroke-width="1.5" stroke-linecap="round" stroke-linejoin="round"/>
<path d="M10.4584 7.5H13.0834" stroke="#5A7A7E" stroke-width="1.5" stroke-linecap="round" stroke-linejoin="round"/>
<path d="M5.58337 11.625H5.59837H13.0834" stroke="#5A7A7E" stroke-width="1.5" stroke-linecap="round" stroke-linejoin="round"/>
<path d="M7.90433 7.5H7.91106" stroke="#5A7A7E" stroke-width="2" stroke-linecap="round" stroke-linejoin="round"/>
<path d="M5.65433 7.5H5.66106" stroke="#5A7A7E" stroke-width="2" stroke-linecap="round" stroke-linejoin="round"/>
</svg>
