<svg width="115" height="28" viewBox="0 0 115 28" fill="none" xmlns="http://www.w3.org/2000/svg">
<g clip-path="url(#clip0_1_1274)">
<path d="M33.4062 19.6639H41.5686V17.2054H36.3073V7.94489H33.4062V19.6639Z" fill="white"/>
<path d="M46.4046 18.0249C45.2409 18.0249 44.6344 17.0087 44.6344 15.4844C44.6344 13.9601 45.2409 12.9275 46.4046 12.9275C47.5683 12.9275 48.1911 13.9601 48.1911 15.4844C48.1911 17.0087 47.5683 18.0249 46.4046 18.0249ZM46.421 19.9262C49.1254 19.9262 50.8955 18.0085 50.8955 15.4844C50.8955 12.9603 49.1254 11.0427 46.421 11.0427C43.733 11.0427 41.9301 12.9603 41.9301 15.4844C41.9301 18.0085 43.733 19.9262 46.421 19.9262Z" fill="white"/>
<path d="M55.5766 22.565C56.8222 22.565 57.9204 22.2863 58.6579 21.6307C59.3299 21.0243 59.7725 20.1064 59.7725 18.8444V11.2721H57.2156V12.1736H57.1828C56.6911 11.4688 55.9371 11.0262 54.8226 11.0262C52.7411 11.0262 51.2987 12.7636 51.2987 15.2221C51.2987 17.7954 53.0525 19.205 54.9373 19.205C55.9535 19.205 56.5928 18.7952 57.0845 18.238H57.15V19.0739C57.15 20.0901 56.6747 20.6801 55.5438 20.6801C54.6587 20.6801 54.2162 20.3031 54.0687 19.8606H51.479C51.7412 21.6143 53.2655 22.565 55.5766 22.565ZM55.5602 17.2218C54.5604 17.2218 53.9048 16.4022 53.9048 15.1402C53.9048 13.8618 54.5604 13.0422 55.5602 13.0422C56.6747 13.0422 57.2648 13.9929 57.2648 15.1238C57.2648 16.3039 56.7239 17.2218 55.5602 17.2218Z" fill="white"/>
<path d="M65.03 18.0249C63.8663 18.0249 63.2598 17.0087 63.2598 15.4844C63.2598 13.9601 63.8663 12.9275 65.03 12.9275C66.1937 12.9275 66.8165 13.9601 66.8165 15.4844C66.8165 17.0087 66.1937 18.0249 65.03 18.0249ZM65.0464 19.9262C67.7507 19.9262 69.5211 18.0085 69.5211 15.4844C69.5211 12.9603 67.7507 11.0427 65.0464 11.0427C62.3583 11.0427 60.5554 12.9603 60.5554 15.4844C60.5554 18.0085 62.3583 19.9262 65.0464 19.9262Z" fill="white"/>
<path d="M70.3009 19.6639H72.9725V11.2721H70.3009V19.6639ZM70.3009 10.1084H72.9725V7.94489H70.3009V10.1084Z" fill="white"/>
<path d="M74.1315 22.4339H76.8031V18.7952H76.8359C77.3603 19.5 78.1307 19.9261 79.2124 19.9261C81.4087 19.9261 82.8675 18.1888 82.8675 15.468C82.8675 12.9439 81.5071 11.0262 79.278 11.0262C78.1307 11.0262 77.3112 11.5343 76.7375 12.2883H76.6883V11.2721H74.1315V22.4339ZM78.5241 17.861C77.3767 17.861 76.7211 16.9267 76.7211 15.5663C76.7211 14.206 77.3112 13.1734 78.4749 13.1734C79.6222 13.1734 80.1631 14.124 80.1631 15.5663C80.1631 16.9923 79.5402 17.861 78.5241 17.861Z" fill="white"/>
<path d="M87.2176 19.9261C89.4139 19.9261 91.0366 18.9755 91.0366 17.1398C91.0366 14.9927 89.2992 14.6157 87.8241 14.3699C86.7587 14.1732 85.8081 14.0912 85.8081 13.5012C85.8081 12.9767 86.3162 12.7308 86.9718 12.7308C87.7094 12.7308 88.2175 12.9603 88.3158 13.7142H90.7743C90.6432 12.0588 89.3648 11.0262 86.9882 11.0262C85.005 11.0262 83.3659 11.9441 83.3659 13.7142C83.3659 15.6811 84.923 16.0744 86.3817 16.3203C87.4963 16.517 88.5125 16.5989 88.5125 17.3529C88.5125 17.8938 88.0044 18.1888 87.2013 18.1888C86.3162 18.1888 85.7589 17.779 85.6606 16.9431H83.1365C83.2184 18.7952 84.7591 19.9261 87.2176 19.9261Z" fill="white"/>
<path d="M94.6651 19.9098C95.8288 19.9098 96.5664 19.4508 97.1728 18.6313H97.222V19.6639H99.7788V11.2721H97.1072V15.9597C97.1072 16.9595 96.55 17.6479 95.6321 17.6479C94.7798 17.6479 94.3701 17.1398 94.3701 16.2219V11.2721H91.7148V16.7792C91.7148 18.6477 92.731 19.9098 94.6651 19.9098Z" fill="white"/>
<path d="M100.941 19.6639H103.613V14.9599C103.613 13.9601 104.104 13.2553 104.94 13.2553C105.744 13.2553 106.12 13.7798 106.12 14.6813V19.6639H108.792V14.9599C108.792 13.9601 109.267 13.2553 110.12 13.2553C110.923 13.2553 111.3 13.7798 111.3 14.6813V19.6639H113.971V14.206C113.971 12.3211 113.021 11.0262 111.12 11.0262C110.038 11.0262 109.136 11.4852 108.481 12.5014H108.448C108.022 11.5999 107.186 11.0262 106.088 11.0262C104.875 11.0262 104.072 11.5999 103.547 12.4686H103.498V11.2721H100.941V19.6639Z" fill="white"/>
<path fill-rule="evenodd" clip-rule="evenodd" d="M6.10529 2.65758C5.12826 3.34075 4.24475 4.14848 3.47779 5.05775C6.61195 4.76677 10.5938 5.2419 15.2166 7.55335C20.1533 10.0216 24.1284 10.105 26.895 9.5714C26.6439 8.81137 26.3279 8.08091 25.9536 7.38651C22.7866 7.72053 18.7266 7.27841 13.995 4.91268C10.9904 3.41038 8.3419 2.79153 6.10529 2.65758ZM24.1036 4.75333C21.6026 1.95903 17.9682 0.2005 13.9229 0.2005C12.735 0.2005 11.5823 0.352183 10.4835 0.637219C11.9717 1.04329 13.5527 1.63737 15.2166 2.46936C18.6809 4.20144 21.6717 4.75914 24.1036 4.75333ZM27.4865 12.2392C24.1442 12.8992 19.5289 12.7636 13.995 9.99666C8.82145 7.40987 4.70372 7.44244 1.92658 8.05961C1.78323 8.09143 1.64326 8.12489 1.50667 8.15972C1.14307 8.95048 0.852837 9.78202 0.644591 10.6455C0.867009 10.5861 1.09684 10.5296 1.33398 10.4769C4.70314 9.7282 9.46347 9.76071 15.2166 12.6373C20.3903 15.2241 24.508 15.1915 27.2852 14.5744C27.3803 14.5533 27.4741 14.5314 27.5663 14.5089C27.5764 14.2936 27.5814 14.0769 27.5814 13.859C27.5814 13.311 27.5492 12.7704 27.4865 12.2392ZM27.1203 17.3913C23.8105 17.97 19.3296 17.7479 13.995 15.0806C8.82145 12.4938 4.70372 12.5264 1.92658 13.1436C1.31014 13.2805 0.755592 13.4474 0.266405 13.6235C0.265072 13.7018 0.264404 13.7803 0.264404 13.859C0.264404 21.4024 6.37953 27.5176 13.9229 27.5176C20.2448 27.5176 25.5636 23.2226 27.1203 17.3913Z" fill="white"/>
</g>
<defs>
<clipPath id="clip0_1_1274">
<rect width="114.049" height="28" fill="white" transform="translate(0.195068)"/>
</clipPath>
</defs>
</svg>
