<svg width="115" height="28" viewBox="0 0 115 28" fill="none" xmlns="http://www.w3.org/2000/svg">
<g clip-path="url(#clip0_1_1285)">
<path d="M33.8967 19.7724H42.0591V17.3138H36.7978V8.05334H33.8967V19.7724Z" fill="white"/>
<path d="M46.8952 18.1334C45.7315 18.1334 45.125 17.1172 45.125 15.5929C45.125 14.0686 45.7315 13.036 46.8952 13.036C48.0589 13.036 48.6817 14.0686 48.6817 15.5929C48.6817 17.1172 48.0589 18.1334 46.8952 18.1334ZM46.9116 20.0346C49.616 20.0346 51.3861 18.117 51.3861 15.5929C51.3861 13.0688 49.616 11.1511 46.9116 11.1511C44.2236 11.1511 42.4207 13.0688 42.4207 15.5929C42.4207 18.117 44.2236 20.0346 46.9116 20.0346Z" fill="white"/>
<path d="M56.0672 22.6734C57.3128 22.6734 58.411 22.3948 59.1485 21.7392C59.8205 21.1328 60.2631 20.2149 60.2631 18.9529V11.3806H57.7062V12.282H57.6734C57.1817 11.5772 56.4277 11.1347 55.3132 11.1347C53.2317 11.1347 51.7893 12.8721 51.7893 15.3306C51.7893 17.9039 53.5431 19.3134 55.4279 19.3134C56.4441 19.3134 57.0834 18.9037 57.5751 18.3464H57.6406V19.1823C57.6406 20.1985 57.1653 20.7886 56.0344 20.7886C55.1493 20.7886 54.7068 20.4116 54.5593 19.969H51.9696C52.2318 21.7228 53.7561 22.6734 56.0672 22.6734ZM56.0508 17.3302C55.051 17.3302 54.3954 16.5107 54.3954 15.2487C54.3954 13.9702 55.051 13.1507 56.0508 13.1507C57.1653 13.1507 57.7554 14.1013 57.7554 15.2323C57.7554 16.4124 57.2145 17.3302 56.0508 17.3302Z" fill="white"/>
<path d="M65.5204 18.1334C64.3567 18.1334 63.7503 17.1172 63.7503 15.5929C63.7503 14.0686 64.3567 13.036 65.5204 13.036C66.6841 13.036 67.307 14.0686 67.307 15.5929C67.307 17.1172 66.6841 18.1334 65.5204 18.1334ZM65.5368 20.0346C68.2412 20.0346 70.011 18.117 70.011 15.5929C70.011 13.0688 68.2412 11.1511 65.5368 11.1511C62.8488 11.1511 61.0459 13.0688 61.0459 15.5929C61.0459 18.117 62.8488 20.0346 65.5368 20.0346Z" fill="white"/>
<path d="M70.7915 19.7724H73.4631V11.3806H70.7915V19.7724ZM70.7915 10.2169H73.4631V8.05334H70.7915V10.2169Z" fill="white"/>
<path d="M74.6221 22.5423H77.2937V18.9037H77.3265C77.8509 19.6085 78.6213 20.0346 79.703 20.0346C81.8993 20.0346 83.3581 18.2972 83.3581 15.5765C83.3581 13.0524 81.9977 11.1347 79.7686 11.1347C78.6213 11.1347 77.8018 11.6428 77.2281 12.3968H77.1789V11.3806H74.6221V22.5423ZM79.0147 17.9694C77.8673 17.9694 77.2117 17.0352 77.2117 15.6748C77.2117 14.3144 77.8018 13.2818 78.9655 13.2818C80.1128 13.2818 80.6537 14.2325 80.6537 15.6748C80.6537 17.1008 80.0309 17.9694 79.0147 17.9694Z" fill="white"/>
<path d="M87.7076 20.0346C89.9039 20.0346 91.5266 19.084 91.5266 17.2483C91.5266 15.1011 89.7892 14.7242 88.3141 14.4783C87.2487 14.2816 86.2981 14.1997 86.2981 13.6096C86.2981 13.0851 86.8062 12.8393 87.4618 12.8393C88.1993 12.8393 88.7074 13.0688 88.8058 13.8227H91.2643C91.1332 12.1673 89.8548 11.1347 87.4782 11.1347C85.495 11.1347 83.8559 12.0526 83.8559 13.8227C83.8559 15.7895 85.413 16.1829 86.8717 16.4288C87.9863 16.6254 89.0025 16.7074 89.0025 17.4613C89.0025 18.0022 88.4944 18.2972 87.6912 18.2972C86.8062 18.2972 86.2489 17.8875 86.1506 17.0516H83.6265C83.7084 18.9037 85.2491 20.0346 87.7076 20.0346Z" fill="white"/>
<path d="M95.1558 20.0182C96.3195 20.0182 97.0571 19.5593 97.6635 18.7398H97.7127V19.7724H100.27V11.3806H97.598V16.0682C97.598 17.068 97.0407 17.7564 96.1228 17.7564C95.2705 17.7564 94.8608 17.2483 94.8608 16.3304V11.3806H92.2056V16.8877C92.2056 18.7562 93.2218 20.0182 95.1558 20.0182Z" fill="white"/>
<path d="M101.432 19.7724H104.103V15.0684C104.103 14.0686 104.595 13.3638 105.431 13.3638C106.234 13.3638 106.611 13.8883 106.611 14.7897V19.7724H109.283V15.0684C109.283 14.0686 109.758 13.3638 110.61 13.3638C111.414 13.3638 111.791 13.8883 111.791 14.7897V19.7724H114.462V14.3144C114.462 12.4295 113.512 11.1347 111.61 11.1347C110.528 11.1347 109.627 11.5936 108.971 12.6098H108.939C108.512 11.7084 107.677 11.1347 106.578 11.1347C105.366 11.1347 104.562 11.7084 104.038 12.577H103.989V11.3806H101.432V19.7724Z" fill="white"/>
<path d="M17.597 1.35008L14.9111 0.630371L12.6476 9.07788L10.6041 1.45141L7.91806 2.17112L10.126 10.411L4.6266 4.91162L2.66032 6.8779L8.69243 12.9101L1.1804 10.8972L0.460693 13.5832L8.66853 15.7824C8.57456 15.3771 8.52484 14.9548 8.52484 14.5209C8.52484 11.4493 11.0148 8.95939 14.0863 8.95939C17.1579 8.95939 19.6478 11.4493 19.6478 14.5209C19.6478 14.952 19.5987 15.3717 19.5059 15.7747L26.9653 17.7734L27.685 15.0874L19.4445 12.8794L26.957 10.8664L26.2373 8.18045L17.9972 10.3884L23.4965 4.88905L21.5302 2.92277L15.5818 8.87123L17.597 1.35008Z" fill="white"/>
<path d="M19.4985 15.8059C19.2682 16.7795 18.7821 17.6541 18.115 18.3549L23.519 23.7589L25.4853 21.7926L19.4985 15.8059Z" fill="white"/>
<path d="M18.0603 18.4114C17.3852 19.101 16.532 19.6156 15.5752 19.8808L17.5416 27.2195L20.2276 26.4998L18.0603 18.4114Z" fill="white"/>
<path d="M15.475 19.9076C15.0311 20.0217 14.5658 20.0824 14.0863 20.0824C13.5726 20.0824 13.0752 20.0127 12.603 19.8823L10.6348 27.2278L13.3207 27.9474L15.475 19.9076Z" fill="white"/>
<path d="M12.508 19.8552C11.5658 19.5769 10.7278 19.0557 10.0665 18.3642L4.64917 23.7815L6.61545 25.7478L12.508 19.8552Z" fill="white"/>
<path d="M10.0212 18.3163C9.3712 17.6204 8.89772 16.7574 8.67236 15.7989L1.1886 17.8042L1.9083 20.4901L10.0212 18.3163Z" fill="white"/>
</g>
<defs>
<clipPath id="clip0_1_1285">
<rect width="114.732" height="28" fill="white" transform="translate(0.243896)"/>
</clipPath>
</defs>
</svg>
