<svg width="117" height="28" viewBox="0 0 117 28" fill="none" xmlns="http://www.w3.org/2000/svg">
<path d="M35.4166 19.2162H43.579V16.7577H38.3177V7.49719H35.4166V19.2162Z" fill="white"/>
<path d="M48.4148 17.5772C47.2511 17.5772 46.6447 16.561 46.6447 15.0367C46.6447 13.5124 47.2511 12.4798 48.4148 12.4798C49.5786 12.4798 50.2014 13.5124 50.2014 15.0367C50.2014 16.561 49.5786 17.5772 48.4148 17.5772ZM48.4312 19.4784C51.1356 19.4784 52.9058 17.5608 52.9058 15.0367C52.9058 12.5126 51.1356 10.5949 48.4312 10.5949C45.7432 10.5949 43.9403 12.5126 43.9403 15.0367C43.9403 17.5608 45.7432 19.4784 48.4312 19.4784Z" fill="white"/>
<path d="M57.5869 22.1173C58.8326 22.1173 59.9307 21.8387 60.6683 21.183C61.3403 20.5766 61.7828 19.6587 61.7828 18.3967V10.8244H59.226V11.7259H59.1932C58.7015 11.0211 57.9475 10.5786 56.833 10.5786C54.7514 10.5786 53.3091 12.3159 53.3091 14.7745C53.3091 17.3477 55.0628 18.7573 56.9477 18.7573C57.9639 18.7573 58.6031 18.3475 59.0948 17.7903H59.1604V18.6262C59.1604 19.6424 58.6851 20.2324 57.5542 20.2324C56.6691 20.2324 56.2265 19.8554 56.079 19.4129H53.4894C53.7516 21.1667 55.2759 22.1173 57.5869 22.1173ZM57.5705 16.7741C56.5707 16.7741 55.9151 15.9546 55.9151 14.6925C55.9151 13.4141 56.5707 12.5946 57.5705 12.5946C58.6851 12.5946 59.2751 13.5452 59.2751 14.6761C59.2751 15.8562 58.7343 16.7741 57.5705 16.7741Z" fill="white"/>
<path d="M67.0402 17.5772C65.8765 17.5772 65.2701 16.561 65.2701 15.0367C65.2701 13.5124 65.8765 12.4798 67.0402 12.4798C68.2039 12.4798 68.8267 13.5124 68.8267 15.0367C68.8267 16.561 68.2039 17.5772 67.0402 17.5772ZM67.0566 19.4784C69.761 19.4784 71.5311 17.5608 71.5311 15.0367C71.5311 12.5126 69.761 10.5949 67.0566 10.5949C64.3686 10.5949 62.5657 12.5126 62.5657 15.0367C62.5657 17.5608 64.3686 19.4784 67.0566 19.4784Z" fill="white"/>
<path d="M72.311 19.2162H74.9826V10.8244H72.311V19.2162ZM72.311 9.6607H74.9826V7.49719H72.311V9.6607Z" fill="white"/>
<path d="M76.1422 21.9862H78.8138V18.3475H78.8466C79.3711 19.0523 80.1414 19.4785 81.2232 19.4785C83.4195 19.4785 84.8782 17.7411 84.8782 15.0203C84.8782 12.4962 83.5178 10.5786 81.2887 10.5786C80.1414 10.5786 79.3219 11.0866 78.7483 11.8406H78.6991V10.8244H76.1422V21.9862ZM80.5348 17.4133C79.3875 17.4133 78.7319 16.479 78.7319 15.1186C78.7319 13.7583 79.3219 12.7257 80.4856 12.7257C81.6329 12.7257 82.1738 13.6763 82.1738 15.1186C82.1738 16.5446 81.551 17.4133 80.5348 17.4133Z" fill="white"/>
<path d="M89.2278 19.4785C91.4241 19.4785 93.0467 18.5278 93.0467 16.6921C93.0467 14.545 91.3093 14.168 89.8342 13.9222C88.7688 13.7255 87.8182 13.6435 87.8182 13.0535C87.8182 12.529 88.3263 12.2831 88.9819 12.2831C89.7195 12.2831 90.2276 12.5126 90.3259 13.2666H92.7845C92.6533 11.6111 91.3749 10.5786 88.9983 10.5786C87.0151 10.5786 85.3761 11.4964 85.3761 13.2666C85.3761 15.2334 86.9331 15.6267 88.3919 15.8726C89.5064 16.0693 90.5226 16.1512 90.5226 16.9052C90.5226 17.4461 90.0145 17.7411 89.2114 17.7411C88.3263 17.7411 87.769 17.3313 87.6707 16.4954H85.1466C85.2286 18.3475 86.7692 19.4785 89.2278 19.4785Z" fill="white"/>
<path d="M96.6758 19.4621C97.8395 19.4621 98.5771 19.0031 99.1835 18.1836H99.2327V19.2162H101.79V10.8244H99.118V15.512C99.118 16.5118 98.5607 17.2002 97.6429 17.2002C96.7906 17.2002 96.3808 16.6921 96.3808 15.7743V10.8244H93.7256V16.3315C93.7256 18.2 94.7418 19.4621 96.6758 19.4621Z" fill="white"/>
<path d="M102.951 19.2162H105.623V14.5122C105.623 13.5124 106.114 12.8076 106.95 12.8076C107.754 12.8076 108.13 13.3321 108.13 14.2336V19.2162H110.802V14.5122C110.802 13.5124 111.277 12.8076 112.13 12.8076C112.933 12.8076 113.31 13.3321 113.31 14.2336V19.2162H115.981V13.7583C115.981 11.8734 115.031 10.5786 113.13 10.5786C112.048 10.5786 111.146 11.0375 110.491 12.0537H110.458C110.032 11.1522 109.196 10.5786 108.098 10.5786C106.885 10.5786 106.082 11.1522 105.557 12.0209H105.508V10.8244H102.951V19.2162Z" fill="white"/>
<path fill-rule="evenodd" clip-rule="evenodd" d="M14.1257 27.4113C21.6691 27.4113 27.7842 21.2962 27.7842 13.7528C27.7842 6.20938 21.6691 0.0942383 14.1257 0.0942383C6.58228 0.0942383 0.467163 6.20938 0.467163 13.7528C0.467163 21.2962 6.58228 27.4113 14.1257 27.4113ZM18.3867 6.45696C18.5941 5.72022 17.8791 5.28457 17.2262 5.74976L8.11124 12.2432C7.40312 12.7477 7.5145 13.7528 8.27856 13.7528H10.6788V13.7342H15.3567L11.5451 15.0791L9.86472 21.0486C9.65732 21.7853 10.3722 22.221 11.0252 21.7558L20.1402 15.2624C20.8483 14.7579 20.7368 13.7528 19.9729 13.7528H16.333L18.3867 6.45696Z" fill="white"/>
</svg>
