<svg width="117" height="28" viewBox="0 0 117 28" fill="none" xmlns="http://www.w3.org/2000/svg">
<g clip-path="url(#clip0_1_1263)">
<path d="M35.1163 20.0256H43.2787V17.5671H38.0174V8.30658H35.1163V20.0256Z" fill="white"/>
<path d="M48.1146 18.3866C46.9508 18.3866 46.3444 17.3704 46.3444 15.8461C46.3444 14.3218 46.9508 13.2892 48.1146 13.2892C49.2783 13.2892 49.9011 14.3218 49.9011 15.8461C49.9011 17.3704 49.2783 18.3866 48.1146 18.3866ZM48.1309 20.2879C50.8353 20.2879 52.6055 18.3702 52.6055 15.8461C52.6055 13.322 50.8353 11.4044 48.1309 11.4044C45.4429 11.4044 43.64 13.322 43.64 15.8461C43.64 18.3702 45.4429 20.2879 48.1309 20.2879Z" fill="white"/>
<path d="M57.2865 22.9267C58.5322 22.9267 59.6303 22.648 60.3679 21.9924C61.0399 21.386 61.4824 20.4681 61.4824 19.2061V11.6338H58.9255V12.5353H58.8928C58.4011 11.8305 57.6471 11.3879 56.5326 11.3879C54.451 11.3879 53.0087 13.1253 53.0087 15.5838C53.0087 18.1571 54.7624 19.5667 56.6473 19.5667C57.6635 19.5667 58.3027 19.1569 58.7944 18.5996H58.86V19.4356C58.86 20.4517 58.3847 21.0418 57.2537 21.0418C56.3687 21.0418 55.9261 20.6648 55.7786 20.2223H53.189C53.4512 21.976 54.9755 22.9267 57.2865 22.9267ZM57.2701 17.5835C56.2703 17.5835 55.6147 16.7639 55.6147 15.5019C55.6147 14.2235 56.2703 13.4039 57.2701 13.4039C58.3847 13.4039 58.9747 14.3546 58.9747 15.4855C58.9747 16.6656 58.4338 17.5835 57.2701 17.5835Z" fill="white"/>
<path d="M66.7398 18.3866C65.5761 18.3866 64.9696 17.3704 64.9696 15.8461C64.9696 14.3218 65.5761 13.2892 66.7398 13.2892C67.9035 13.2892 68.5261 14.3218 68.5261 15.8461C68.5261 17.3704 67.9035 18.3866 66.7398 18.3866ZM66.7562 20.2879C69.4603 20.2879 71.2304 18.3702 71.2304 15.8461C71.2304 13.322 69.4603 11.4044 66.7562 11.4044C64.0682 11.4044 62.2653 13.322 62.2653 15.8461C62.2653 18.3702 64.0682 20.2879 66.7562 20.2879Z" fill="white"/>
<path d="M72.0111 20.0256H74.6827V11.6338H72.0111V20.0256ZM72.0111 10.4701H74.6827V8.30658H72.0111V10.4701Z" fill="white"/>
<path d="M75.8417 22.7955H78.5133V19.1569H78.5461C79.0706 19.8617 79.8409 20.2878 80.9226 20.2878C83.1189 20.2878 84.5777 18.5505 84.5777 15.8297C84.5777 13.3056 83.2173 11.3879 80.9882 11.3879C79.8409 11.3879 79.0214 11.896 78.4477 12.65H78.3985V11.6338H75.8417V22.7955ZM80.2343 18.2227C79.0869 18.2227 78.4313 17.2884 78.4313 15.928C78.4313 14.5676 79.0214 13.5351 80.1851 13.5351C81.3324 13.5351 81.8733 14.4857 81.8733 15.928C81.8733 17.354 81.2505 18.2227 80.2343 18.2227Z" fill="white"/>
<path d="M88.9272 20.2878C91.1235 20.2878 92.7462 19.3372 92.7462 17.5015C92.7462 15.3544 91.0088 14.9774 89.5337 14.7315C88.4683 14.5349 87.5177 14.4529 87.5177 13.8629C87.5177 13.3384 88.0258 13.0925 88.6814 13.0925C89.419 13.0925 89.927 13.322 90.0254 14.0759H92.4839C92.3528 12.4205 91.0744 11.3879 88.6978 11.3879C86.7146 11.3879 85.0755 12.3058 85.0755 14.0759C85.0755 16.0428 86.6326 16.4361 88.0913 16.682C89.2059 16.8787 90.2221 16.9606 90.2221 17.7146C90.2221 18.2555 89.714 18.5505 88.9109 18.5505C88.0258 18.5505 87.4685 18.1407 87.3702 17.3048H84.8461C84.928 19.1569 86.4687 20.2878 88.9272 20.2878Z" fill="white"/>
<path d="M96.3752 20.2714C97.5389 20.2714 98.2764 19.8125 98.8829 18.993H98.932V20.0256H101.489V11.6338H98.8173V16.3214C98.8173 17.3212 98.26 18.0096 97.3422 18.0096C96.4899 18.0096 96.0801 17.5015 96.0801 16.5836V11.6338H93.4249V17.1409C93.4249 19.0094 94.4411 20.2714 96.3752 20.2714Z" fill="white"/>
<path d="M102.651 20.0256H105.323V15.3216C105.323 14.3218 105.815 13.617 106.65 13.617C107.454 13.617 107.831 14.1415 107.831 15.043V20.0256H110.502V15.3216C110.502 14.3218 110.977 13.617 111.83 13.617C112.633 13.617 113.01 14.1415 113.01 15.043V20.0256H115.681V14.5676C115.681 12.6828 114.731 11.3879 112.83 11.3879C111.748 11.3879 110.846 11.8469 110.191 12.8631H110.158C109.732 11.9616 108.896 11.3879 107.798 11.3879C106.585 11.3879 105.782 11.9616 105.257 12.8303H105.208V11.6338H102.651V20.0256Z" fill="white"/>
<path fill-rule="evenodd" clip-rule="evenodd" d="M13.8254 27.5378C21.3689 27.5378 27.4839 21.4227 27.4839 13.8793C27.4839 6.33589 21.3689 0.220764 13.8254 0.220764C6.28199 0.220764 0.16687 6.33589 0.16687 13.8793C0.16687 21.4227 6.28199 27.5378 13.8254 27.5378ZM15.9336 10.7737C17.0978 9.60941 17.0978 7.72173 15.9336 6.55741C14.7693 5.3931 12.8816 5.3931 11.7173 6.55741C10.553 7.72173 10.553 9.60941 11.7173 10.7737L13.8254 12.8819L15.9336 10.7737ZM16.931 15.9875C18.0953 17.1518 19.983 17.1518 21.1473 15.9875C22.3116 14.8231 22.3116 12.9355 21.1473 11.7711C19.983 10.6069 18.0953 10.6069 16.931 11.7711L14.8229 13.8793L16.931 15.9875ZM15.9336 21.2012C17.0978 20.0369 17.0978 18.1492 15.9336 16.9849L13.8254 14.8768L11.7173 16.9849C10.553 18.1492 10.553 20.0369 11.7173 21.2012C12.8816 22.3655 14.7693 22.3655 15.9336 21.2012ZM6.50349 15.9875C5.33921 14.8231 5.33921 12.9355 6.50349 11.7711C7.66784 10.6069 9.55552 10.6069 10.7198 11.7711L12.828 13.8793L10.7198 15.9875C9.55552 17.1518 7.66784 17.1518 6.50349 15.9875Z" fill="white"/>
</g>
<defs>
<clipPath id="clip0_1_1263">
<rect width="116.098" height="28" fill="white" transform="translate(0.0975342)"/>
</clipPath>
</defs>
</svg>
