<svg width="32" height="32" viewBox="0 0 32 32" fill="none" xmlns="http://www.w3.org/2000/svg">
<g id="logo-89" clip-path="url(#clip0_1_2599)">
<path id="Vector" d="M31.9559 17.1998H26.2402C21.2475 17.1998 17.2002 21.2472 17.2002 26.2398V31.9555C25.0802 31.3712 31.3716 25.0798 31.9559 17.1998Z" fill="#34613A"/>
<path id="Vector_2" d="M14.8002 31.9555V26.2398C14.8002 21.2472 10.7529 17.1998 5.76021 17.1998H0.0445309C0.628798 25.0798 6.92029 31.3712 14.8002 31.9555Z" fill="#34613A"/>
<path id="Vector_3" d="M31.9559 14.7998C31.3716 6.9199 25.0802 0.628407 17.2002 0.0441399V5.75982C17.2002 10.7525 21.2475 14.7998 26.2402 14.7998H31.9559Z" fill="#34613A"/>
<path id="Vector_4" d="M14.8002 0.0441399C6.92029 0.628407 0.628798 6.9199 0.0445309 14.7998H5.76021C10.7529 14.7998 14.8002 10.7525 14.8002 5.75982V0.0441399Z" fill="#34613A"/>
<path id="Vector_5" d="M10.8664 15.9998C13.0844 14.8916 14.892 13.084 16.0002 10.866C17.1084 13.084 18.9159 14.8916 21.134 15.9998C18.9159 17.108 17.1084 18.9156 16.0002 21.1336C14.892 18.9156 13.0844 17.108 10.8664 15.9998Z" fill="#FBAD48"/>
</g>
<defs>
<clipPath id="clip0_1_2599">
<rect width="32" height="32" fill="white"/>
</clipPath>
</defs>
</svg>
