<svg width="24" height="24" viewBox="0 0 24 24" fill="none" xmlns="http://www.w3.org/2000/svg">
<path d="M12.1601 10.8705C12.0601 10.8605 11.9401 10.8605 11.8301 10.8705C9.45006 10.7905 7.56006 8.84049 7.56006 6.44049C7.56006 3.99049 9.54006 2.00049 12.0001 2.00049C14.4501 2.00049 16.4401 3.99049 16.4401 6.44049C16.4301 8.84049 14.5401 10.7905 12.1601 10.8705Z" stroke="#5A7A7E" stroke-width="1.5" stroke-linecap="round" stroke-linejoin="round"/>
<path d="M7.15997 14.5605C4.73997 16.1805 4.73997 18.8205 7.15997 20.4305C9.90997 22.2705 14.42 22.2705 17.17 20.4305C19.59 18.8105 19.59 16.1705 17.17 14.5605C14.43 12.7305 9.91997 12.7305 7.15997 14.5605Z" stroke="#5A7A7E" stroke-width="1.5" stroke-linecap="round" stroke-linejoin="round"/>
</svg>
