<svg width="52" height="52" viewBox="0 0 52 52" fill="none" xmlns="http://www.w3.org/2000/svg">
<rect y="3.05176e-05" width="52" height="52" rx="16" fill="#F1FAE6"/>
<path d="M31 34.5H21C18 34.5 16 33 16 29.5V22.5C16 19 18 17.5 21 17.5H31C34 17.5 36 19 36 22.5V29.5C36 33 34 34.5 31 34.5Z" stroke="#34613A" stroke-width="2" stroke-miterlimit="10" stroke-linecap="round" stroke-linejoin="round"/>
<path d="M26 29C27.6569 29 29 27.6569 29 26C29 24.3432 27.6569 23 26 23C24.3431 23 23 24.3432 23 26C23 27.6569 24.3431 29 26 29Z" stroke="#34613A" stroke-width="2" stroke-miterlimit="10" stroke-linecap="round" stroke-linejoin="round"/>
<path d="M19.5 23.5V28.5" stroke="#34613A" stroke-width="2" stroke-miterlimit="10" stroke-linecap="round" stroke-linejoin="round"/>
<path d="M32.5 23.5V28.5" stroke="#34613A" stroke-width="2" stroke-miterlimit="10" stroke-linecap="round" stroke-linejoin="round"/>
</svg>
