<svg width="48" height="48" viewBox="0 0 48 48" fill="none" xmlns="http://www.w3.org/2000/svg">
<rect width="48" height="48" rx="24" fill="#F1FAE6"/>
<path d="M24.5 34.0001H16.08C14.92 34.0001 13.97 33.0701 13.97 31.9301V17.0901C13.97 14.4701 15.92 13.2801 18.31 14.4501L22.75 16.6301C23.71 17.1001 24.5 18.3501 24.5 19.4101V34.0001Z" stroke="#34613A" stroke-width="1.5" stroke-linecap="round" stroke-linejoin="round"/>
<path d="M33.97 27.0601V30.8401C33.97 33.0001 32.97 34.0001 30.81 34.0001H24.5V22.4201L24.97 22.5201L29.47 23.5301L31.5 23.9801C32.82 24.2701 33.9 24.9501 33.96 26.8701C33.97 26.9301 33.97 26.9901 33.97 27.0601Z" stroke="#34613A" stroke-width="1.5" stroke-linecap="round" stroke-linejoin="round"/>
<path d="M17.5 21.0001H20.97" stroke="#34613A" stroke-width="1.5" stroke-linecap="round" stroke-linejoin="round"/>
<path d="M17.5 25.0001H20.97" stroke="#34613A" stroke-width="1.5" stroke-linecap="round" stroke-linejoin="round"/>
<path d="M29.47 23.5301V26.7501C29.47 27.9901 28.46 29.0001 27.22 29.0001C25.98 29.0001 24.97 27.9901 24.97 26.7501V22.5201L29.47 23.5301Z" stroke="#34613A" stroke-width="1.5" stroke-linecap="round" stroke-linejoin="round"/>
<path d="M33.96 26.8701C33.9 28.0501 32.92 29.0001 31.72 29.0001C30.48 29.0001 29.47 27.9901 29.47 26.7501V23.5301L31.5 23.9801C32.82 24.2701 33.9 24.9501 33.96 26.8701Z" stroke="#34613A" stroke-width="1.5" stroke-linecap="round" stroke-linejoin="round"/>
</svg>
