<svg width="24" height="24" viewBox="0 0 24 24" fill="none" xmlns="http://www.w3.org/2000/svg">
<path d="M9.16006 10.8705C9.06006 10.8605 8.94006 10.8605 8.83006 10.8705C6.45006 10.7905 4.56006 8.84049 4.56006 6.44049C4.56006 3.99049 6.54006 2.00049 9.00006 2.00049C11.4501 2.00049 13.4401 3.99049 13.4401 6.44049C13.4301 8.84049 11.5401 10.7905 9.16006 10.8705Z" stroke="#5A7A7E" stroke-width="1.5" stroke-linecap="round" stroke-linejoin="round"/>
<path d="M16.41 4.00049C18.35 4.00049 19.91 5.57049 19.91 7.50049C19.91 9.39049 18.41 10.9305 16.54 11.0005C16.46 10.9905 16.37 10.9905 16.28 11.0005" stroke="#5A7A7E" stroke-width="1.5" stroke-linecap="round" stroke-linejoin="round"/>
<path d="M4.15997 14.5605C1.73997 16.1805 1.73997 18.8205 4.15997 20.4305C6.90997 22.2705 11.42 22.2705 14.17 20.4305C16.59 18.8105 16.59 16.1705 14.17 14.5605C11.43 12.7305 6.91997 12.7305 4.15997 14.5605Z" stroke="#5A7A7E" stroke-width="1.5" stroke-linecap="round" stroke-linejoin="round"/>
<path d="M18.3401 20.0005C19.0601 19.8505 19.7401 19.5605 20.3001 19.1305C21.8601 17.9605 21.8601 16.0305 20.3001 14.8605C19.7501 14.4405 19.0801 14.1605 18.3701 14.0005" stroke="#5A7A7E" stroke-width="1.5" stroke-linecap="round" stroke-linejoin="round"/>
</svg>
