<svg width="56" height="56" viewBox="0 0 56 56" fill="none" xmlns="http://www.w3.org/2000/svg">
<rect y="0.00012207" width="56" height="56" rx="28" fill="#F1FAE6"/>
<path d="M36 24.2501V34.0001C36 37.0001 34.21 38.0001 32 38.0001H24C21.79 38.0001 20 37.0001 20 34.0001V24.2501C20 21.0001 21.79 20.2501 24 20.2501C24 20.8701 24.25 21.4301 24.66 21.8401C25.07 22.2501 25.63 22.5001 26.25 22.5001H29.75C30.99 22.5001 32 21.4901 32 20.2501C34.21 20.2501 36 21.0001 36 24.2501Z" stroke="#34613A" stroke-width="1.5" stroke-linecap="round" stroke-linejoin="round"/>
<path d="M32 20.2501C32 21.4901 30.99 22.5001 29.75 22.5001H26.25C25.63 22.5001 25.07 22.2501 24.66 21.8401C24.25 21.4301 24 20.8701 24 20.2501C24 19.0101 25.01 18.0001 26.25 18.0001H29.75C30.37 18.0001 30.93 18.2501 31.34 18.6601C31.75 19.0701 32 19.6301 32 20.2501Z" stroke="#34613A" stroke-width="1.5" stroke-linecap="round" stroke-linejoin="round"/>
<path d="M24 29.0001H28" stroke="#34613A" stroke-width="1.5" stroke-linecap="round" stroke-linejoin="round"/>
<path d="M24 33.0001H32" stroke="#34613A" stroke-width="1.5" stroke-linecap="round" stroke-linejoin="round"/>
</svg>
