<svg width="100" height="100" viewBox="0 0 100 100" fill="none" xmlns="http://www.w3.org/2000/svg">
<mask id="mask0_1_1210" style="mask-type:alpha" maskUnits="userSpaceOnUse" x="0" y="0" width="100" height="100">
<rect width="100" height="100" rx="50" fill="#D9D9D9"/>
</mask>
<g mask="url(#mask0_1_1210)">
<rect y="0.5" width="100" height="100" fill="#F1FAE6"/>
<path d="M50.5 60.5C60.8553 60.5 69.25 52.1053 69.25 41.75C69.25 31.3947 60.8553 23 50.5 23C40.1447 23 31.75 31.3947 31.75 41.75C31.75 52.1053 40.1447 60.5 50.5 60.5Z" fill="#34613A"/>
<path d="M50.5001 69.875C31.7126 69.875 16.4126 82.475 16.4126 98C16.4126 99.05 17.2376 99.875 18.2876 99.875H82.7126C83.7626 99.875 84.5876 99.05 84.5876 98C84.5876 82.475 69.2876 69.875 50.5001 69.875Z" fill="#34613A"/>
</g>
</svg>
