<svg width="53" height="52" viewBox="0 0 53 52" fill="none" xmlns="http://www.w3.org/2000/svg">
<rect x="0.666626" y="0.00012207" width="52" height="52" rx="16" fill="#005CAA" fill-opacity="0.09"/>
<path d="M23.8266 24.8701C23.7266 24.8601 23.6066 24.8601 23.4966 24.8701C21.1166 24.7901 19.2266 22.8401 19.2266 20.4401C19.2266 17.9901 21.2066 16.0001 23.6666 16.0001C26.1166 16.0001 28.1066 17.9901 28.1066 20.4401C28.0966 22.8401 26.2066 24.7901 23.8266 24.8701Z" stroke="#005CAA" stroke-width="2" stroke-linecap="round" stroke-linejoin="round"/>
<path d="M31.0767 18.0001C33.0167 18.0001 34.5767 19.5701 34.5767 21.5001C34.5767 23.3901 33.0767 24.9301 31.2067 25.0001C31.1267 24.9901 31.0367 24.9901 30.9467 25.0001" stroke="#005CAA" stroke-width="2" stroke-linecap="round" stroke-linejoin="round"/>
<path d="M18.8266 28.5601C16.4066 30.1801 16.4066 32.8201 18.8266 34.4301C21.5766 36.2701 26.0866 36.2701 28.8366 34.4301C31.2566 32.8101 31.2566 30.1701 28.8366 28.5601C26.0966 26.7301 21.5866 26.7301 18.8266 28.5601Z" stroke="#005CAA" stroke-width="2" stroke-linecap="round" stroke-linejoin="round"/>
<path d="M33.0067 34.0001C33.7267 33.8501 34.4067 33.5601 34.9667 33.1301C36.5267 31.9601 36.5267 30.0301 34.9667 28.8601C34.4167 28.4401 33.7467 28.1601 33.0367 28.0001" stroke="#005CAA" stroke-width="2" stroke-linecap="round" stroke-linejoin="round"/>
</svg>
