<svg width="19" height="18" viewBox="0 0 19 18" fill="none" xmlns="http://www.w3.org/2000/svg">
<path d="M7.53667 8.1525C7.46167 8.145 7.37167 8.145 7.28917 8.1525C5.50417 8.0925 4.08667 6.63 4.08667 4.83C4.08667 2.9925 5.57167 1.5 7.41667 1.5C9.25417 1.5 10.7467 2.9925 10.7467 4.83C10.7392 6.63 9.32167 8.0925 7.53667 8.1525Z" stroke="#005CAA" stroke-width="1.5" stroke-linecap="round" stroke-linejoin="round"/>
<path d="M12.9742 3C14.4292 3 15.5992 4.1775 15.5992 5.625C15.5992 7.0425 14.4742 8.1975 13.0717 8.25C13.0117 8.2425 12.9442 8.2425 12.8767 8.25" stroke="#005CAA" stroke-width="1.5" stroke-linecap="round" stroke-linejoin="round"/>
<path d="M3.78667 10.92C1.97167 12.135 1.97167 14.115 3.78667 15.3225C5.84917 16.7025 9.23167 16.7025 11.2942 15.3225C13.1092 14.1075 13.1092 12.1275 11.2942 10.92C9.23917 9.5475 5.85667 9.5475 3.78667 10.92Z" stroke="#005CAA" stroke-width="1.5" stroke-linecap="round" stroke-linejoin="round"/>
<path d="M14.4217 15C14.9617 14.8875 15.4717 14.67 15.8917 14.3475C17.0617 13.47 17.0617 12.0225 15.8917 11.145C15.4792 10.83 14.9767 10.62 14.4442 10.5" stroke="#005CAA" stroke-width="1.5" stroke-linecap="round" stroke-linejoin="round"/>
</svg>
