<svg width="52" height="52" viewBox="0 0 52 52" fill="none" xmlns="http://www.w3.org/2000/svg">
<rect y="3.05176e-05" width="52" height="52" rx="16" fill="#F1FAE6"/>
<path d="M23.1601 24.87C23.0601 24.86 22.9401 24.86 22.8301 24.87C20.4501 24.79 18.5601 22.84 18.5601 20.44C18.5601 17.99 20.5401 16 23.0001 16C25.4501 16 27.4401 17.99 27.4401 20.44C27.4301 22.84 25.5401 24.79 23.1601 24.87Z" stroke="#34613A" stroke-width="2" stroke-linecap="round" stroke-linejoin="round"/>
<path d="M30.41 18C32.35 18 33.91 19.57 33.91 21.5C33.91 23.39 32.41 24.93 30.54 25C30.46 24.99 30.37 24.99 30.28 25" stroke="#34613A" stroke-width="2" stroke-linecap="round" stroke-linejoin="round"/>
<path d="M18.16 28.56C15.74 30.18 15.74 32.82 18.16 34.43C20.91 36.27 25.42 36.27 28.17 34.43C30.59 32.81 30.59 30.17 28.17 28.56C25.43 26.73 20.92 26.73 18.16 28.56Z" stroke="#34613A" stroke-width="2" stroke-linecap="round" stroke-linejoin="round"/>
<path d="M32.3401 34C33.0601 33.85 33.7401 33.56 34.3001 33.13C35.8601 31.96 35.8601 30.03 34.3001 28.86C33.7501 28.44 33.0801 28.16 32.3701 28" stroke="#34613A" stroke-width="2" stroke-linecap="round" stroke-linejoin="round"/>
</svg>
