<svg width="86" height="86" viewBox="0 0 86 86" fill="none" xmlns="http://www.w3.org/2000/svg">
<mask id="mask0_6_1218" style="mask-type:alpha" maskUnits="userSpaceOnUse" x="0" y="0" width="86" height="86">
<rect width="86" height="86" rx="43" fill="#D9D9D9"/>
</mask>
<g mask="url(#mask0_6_1218)">
<rect width="86" height="86" fill="#FA7B3C"/>
<path d="M57.875 39.8337H52.8175C48.67 39.8337 45.2925 36.4562 45.2925 32.3087V27.2512C45.2925 26.2887 44.505 25.5012 43.5425 25.5012H36.1225C30.7325 25.5012 26.375 29.0012 26.375 35.2487V50.7537C26.375 57.0012 30.7325 60.5012 36.1225 60.5012H49.8775C55.2675 60.5012 59.625 57.0012 59.625 50.7537V41.5837C59.625 40.6212 58.8375 39.8337 57.875 39.8337ZM43.49 49.6162L39.99 53.1162C39.8675 53.2387 39.71 53.3437 39.5525 53.3962C39.395 53.4662 39.2375 53.5012 39.0625 53.5012C38.8875 53.5012 38.73 53.4662 38.5725 53.3962C38.4325 53.3437 38.2925 53.2387 38.1875 53.1337C38.17 53.1162 38.1525 53.1162 38.1525 53.0987L34.6525 49.5987C34.145 49.0912 34.145 48.2512 34.6525 47.7437C35.16 47.2362 36 47.2362 36.5075 47.7437L37.75 49.0212V41.6887C37.75 40.9712 38.345 40.3762 39.0625 40.3762C39.78 40.3762 40.375 40.9712 40.375 41.6887V49.0212L41.635 47.7612C42.1425 47.2537 42.9825 47.2537 43.49 47.7612C43.9975 48.2687 43.9975 49.1087 43.49 49.6162Z" fill="white"/>
<path d="M52.5025 37.4188C54.165 37.4363 56.475 37.4363 58.4525 37.4363C59.45 37.4363 59.975 36.2638 59.275 35.5638C56.755 33.0263 52.24 28.4588 49.65 25.8688C48.9325 25.1513 47.69 25.6413 47.69 26.6388V32.7463C47.69 35.3013 49.86 37.4188 52.5025 37.4188Z" fill="white"/>
</g>
</svg>
