<svg width="52" height="52" viewBox="0 0 52 52" fill="none" xmlns="http://www.w3.org/2000/svg">
<rect y="6.10352e-05" width="52" height="52" rx="16" fill="#FF5070" fill-opacity="0.09"/>
<path d="M32.91 28.6926C32.91 29.9826 33.97 31.0326 35.26 31.0326C35.26 34.7826 34.32 35.7226 30.57 35.7226H21.19C17.44 35.7226 16.5 34.7826 16.5 31.0326V30.5726C17.79 30.5726 18.85 29.5126 18.85 28.2226C18.85 26.9326 17.79 25.8726 16.5 25.8726V25.4126C16.51 21.6626 17.44 20.7226 21.19 20.7226H30.56C34.31 20.7226 35.25 21.6626 35.25 25.4126V26.3526C33.96 26.3526 32.91 27.3926 32.91 28.6926Z" stroke="#FF5070" stroke-width="2" stroke-linecap="round" stroke-linejoin="round"/>
<path d="M30.2111 20.7226H21.1211L24.0511 17.7926C26.4411 15.4026 27.6411 15.4026 30.0311 17.7926L30.6311 18.3926C30.0011 19.0226 29.8511 19.9526 30.2111 20.7226Z" stroke="#FF5070" stroke-width="2" stroke-linecap="round" stroke-linejoin="round"/>
<path d="M23.8789 20.7227L23.8789 35.7227" stroke="#FF5070" stroke-width="2" stroke-linecap="round" stroke-linejoin="round" stroke-dasharray="5 5"/>
</svg>
