<svg width="80" height="81" viewBox="0 0 80 81" fill="none" xmlns="http://www.w3.org/2000/svg">
<path d="M40 40.5001C49.2047 40.5001 56.6666 33.0382 56.6666 23.8334C56.6666 14.6287 49.2047 7.16675 40 7.16675C30.7952 7.16675 23.3333 14.6287 23.3333 23.8334C23.3333 33.0382 30.7952 40.5001 40 40.5001Z" stroke="#5A7A7E" stroke-width="3.5" stroke-linecap="round" stroke-linejoin="round"/>
<path d="M11.3667 73.8333C11.3667 60.9333 24.2 50.5 40 50.5C43.2 50.5 46.3 50.9333 49.2 51.7333" stroke="#5A7A7E" stroke-width="3.5" stroke-linecap="round" stroke-linejoin="round"/>
<path d="M73.3334 60.5001C73.3334 61.5667 73.2 62.6001 72.9334 63.6001C72.6334 64.9334 72.1001 66.2334 71.4001 67.3667C69.1001 71.2334 64.8667 73.8334 60 73.8334C56.5667 73.8334 53.4667 72.5333 51.1333 70.4C50.1333 69.5333 49.2666 68.5001 48.6 67.3667C47.3666 65.3667 46.6667 63.0001 46.6667 60.5001C46.6667 56.9001 48.1 53.6002 50.4334 51.2002C52.8667 48.7002 56.2667 47.1667 60 47.1667C63.9334 47.1667 67.5 48.8668 69.9 51.6001C72.0334 53.9668 73.3334 57.1001 73.3334 60.5001Z" stroke="#5A7A7E" stroke-width="3.5" stroke-miterlimit="10" stroke-linecap="round" stroke-linejoin="round"/>
<path d="M63.4333 56.9668L56.4 64.0001" stroke="#5A7A7E" stroke-width="3.5" stroke-miterlimit="10" stroke-linecap="round" stroke-linejoin="round"/>
<path d="M56.4667 57.0334L63.5333 64.0667" stroke="#5A7A7E" stroke-width="3.5" stroke-miterlimit="10" stroke-linecap="round" stroke-linejoin="round"/>
</svg>
