<svg width="24" height="24" viewBox="0 0 24 24" fill="none" xmlns="http://www.w3.org/2000/svg">
<path d="M18.1401 21.6202C17.2601 21.8802 16.2201 22.0002 15.0001 22.0002H9.00011C7.78011 22.0002 6.74011 21.8802 5.86011 21.6202C6.08011 19.0202 8.75011 16.9702 12.0001 16.9702C15.2501 16.9702 17.9201 19.0202 18.1401 21.6202Z" stroke="#5A7A7E" stroke-width="1.5" stroke-linecap="round" stroke-linejoin="round"/>
<path d="M15 2.00024H9C4 2.00024 2 4.00024 2 9.00024V15.0002C2 18.7802 3.14 20.8502 5.86 21.6202C6.08 19.0202 8.75 16.9702 12 16.9702C15.25 16.9702 17.92 19.0202 18.14 21.6202C20.86 20.8502 22 18.7802 22 15.0002V9.00024C22 4.00024 20 2.00024 15 2.00024ZM12 14.1702C10.02 14.1702 8.42 12.5603 8.42 10.5803C8.42 8.60026 10.02 7.00024 12 7.00024C13.98 7.00024 15.58 8.60026 15.58 10.5803C15.58 12.5603 13.98 14.1702 12 14.1702Z" stroke="#5A7A7E" stroke-width="1.5" stroke-linecap="round" stroke-linejoin="round"/>
<path d="M15.5799 10.5803C15.5799 12.5603 13.9799 14.1702 11.9999 14.1702C10.0199 14.1702 8.41992 12.5603 8.41992 10.5803C8.41992 8.60026 10.0199 7.00024 11.9999 7.00024C13.9799 7.00024 15.5799 8.60026 15.5799 10.5803Z" stroke="#5A7A7E" stroke-width="1.5" stroke-linecap="round" stroke-linejoin="round"/>
</svg>
