<svg width="52" height="52" viewBox="0 0 52 52" fill="none" xmlns="http://www.w3.org/2000/svg">
<rect y="6.10352e-05" width="52" height="52" rx="16" fill="#FF5070" fill-opacity="0.09"/>
<path d="M27 25.1501H21" stroke="#FF5070" stroke-width="2" stroke-linecap="round" stroke-linejoin="round"/>
<path d="M16 25.1501V20.5301C16 18.4901 17.65 16.8401 19.69 16.8401H25.31C27.35 16.8401 29 18.1101 29 20.1501" stroke="#FF5070" stroke-width="2" stroke-linecap="round" stroke-linejoin="round"/>
<path d="M31.48 26.2001C30.98 26.6801 30.74 27.4201 30.94 28.1801C31.19 29.1101 32.11 29.7001 33.07 29.7001H34V31.1501C34 33.3601 32.21 35.1501 30 35.1501H20C17.79 35.1501 16 33.3601 16 31.1501V24.1501C16 21.9401 17.79 20.1501 20 20.1501H30C32.2 20.1501 34 21.9501 34 24.1501V25.6H32.92C32.36 25.6 31.85 25.8201 31.48 26.2001Z" stroke="#FF5070" stroke-width="2" stroke-linecap="round" stroke-linejoin="round"/>
<path d="M36 26.6201V28.6801C36 29.2401 35.54 29.7001 34.97 29.7001H33.04C31.96 29.7001 30.97 28.9101 30.88 27.8301C30.82 27.2001 31.06 26.6101 31.48 26.2001C31.85 25.8201 32.36 25.6 32.92 25.6H34.97C35.54 25.6 36 26.0601 36 26.6201Z" stroke="#FF5070" stroke-width="2" stroke-linecap="round" stroke-linejoin="round"/>
</svg>
